<?xml version="1.0" encoding="UTF-8"?>
<svg id="_레이어_1" data-name="레이어 1" xmlns="http://www.w3.org/2000/svg" viewBox="0 0 1279.91 475.15">
  <defs>
    <style>
      .cls-1 {
        fill: none;
        stroke: #000;
        stroke-miterlimit: 10;
        stroke-width: 7px;
      }
    </style>
  </defs>
  <path class="cls-1" d="M100.85,471.12c-10.65.05-79.91.4-90.97.46-.58,0-.84-.57-.47-1.02,19.01-22.91,11.86-233.64-5.19-261.59-1.1-1.8-1.14-1.81,1.5-2.95l82.49-27.82c1.86-.6,2.44-1.02,2.43.99l-.31,63.51c30.23-59.12,183.16-112.48,186.8,24.6.98,37.01.86,184.68,20.12,203.04.42.4.2,1.01-.38,1.01-12.93,0-97.34.05-105.29.06-.36,0-.5-.22-.35-.54,20.07-44.47,42.53-367.29-100.13-206.75-3.64,34.1,1.17,192.27,10.22,206.12.25.39-.01.89-.47.89Z"/>
  <path class="cls-1" d="M309.11,325c-.66-195.79,305.81-195.3,304.62.41,2.15,194.27-307.28,193.79-304.62-.41ZM536.11,325.83c0-182.7-149.31-183.11-149.31.01s149.31,181.86,149.31-.01Z"/>
  <path class="cls-1" d="M641.84,266.87c-16.08-50.69-41.26-77.1-48.31-83.76-.67-.64-.17-1.71.75-1.71l92.77-.06c5.22,1.95,59.1,181.13,62.89,187.65,0,0,42.39-110.08,42.5-110.36-13.13-39.87-33.23-67.97-38.78-75.29-.61-.8.02-1.89,1.03-1.89l85.9-.17c5.59.05,51.28,161.94,57.36,189.25,6.77-8.26,61.67-171.54,41.27-188.11-.42-.34-.14-1.05.41-1.05,10.25.03,51.1.13,64.08.16.92,0,1.27,1.1.51,1.62-32.9,22.29-107.61,249.98-123.47,288.49l-15.57-.03-63.75-188.01-78.61,187.5h-15.93s-48.81-153.16-65.02-204.23Z"/>
  <path class="cls-1" d="M1276.14,470.48c-26.73-15.77-144.24-174.91-148.01-180.02,21.67-19.92,79.47-74.09,124-98.04.53-.28.36-1.02-.24-1.02-11.07,0-60.98.02-67.12.02-.38,0-.51.32-.39.68,5.83,17.21,5.18,24.2-29.16,54.44-22.11,19.47-52.43,45.67-74.7,62.7.11-122.42,1.14-274.37.98-305.28,0-.4-.25-.57-.63-.42-7.53,2.91-80.65,30.43-80.7,30.45,0,0,0,0,0,0,32.64,95.52,12.73,375.49.29,435.96-.13.65.31,1.18.97,1.18,9.16.02,70.43.18,79.76.21.63,0,1.05-.46.97-1.08-1.27-9.29-1.65-68.32-1.65-141.67,25.35,35.09,103.3,142.38,103.47,142.61,0,0,.19.32.19.33.4.02,76.16-.13,91.65,0,.59,0,.83-.74.32-1.04Z"/>
</svg>