<?xml version="1.0" encoding="UTF-8"?>
<svg id="_레이어_1" data-name="레이어 1" xmlns="http://www.w3.org/2000/svg" viewBox="0 0 1272.91 468.14">
  <defs>
    <style>
      .cls-1 {
        fill: #fff;
      }
    </style>
  </defs>
  <path class="cls-1" d="M97.35,467.62c-10.65.05-79.91.4-90.97.46-.58,0-.84-.57-.47-1.02,19.01-22.91,11.86-233.64-5.19-261.59-1.1-1.8-1.14-1.81,1.5-2.95l82.49-27.82c1.86-.6,2.44-1.02,2.43.99l-.31,63.51c30.23-59.12,183.16-112.48,186.8,24.6.98,37.01.86,184.68,20.12,203.04.42.4.2,1.01-.38,1.01-12.93,0-97.34.05-105.29.06-.36,0-.5-.22-.35-.54,20.07-44.47,42.53-367.29-100.13-206.75-3.64,34.1,1.17,192.27,10.22,206.12.25.39-.01.89-.47.89Z"/>
  <path class="cls-1" d="M305.61,321.5c-.66-195.79,305.81-195.3,304.62.41,2.15,194.27-307.28,193.79-304.62-.41ZM532.61,322.33c0-182.7-149.31-183.11-149.31.01s149.31,181.86,149.31-.01Z"/>
  <path class="cls-1" d="M638.34,263.37c-16.08-50.69-41.26-77.1-48.31-83.76-.67-.64-.17-1.71.75-1.71l92.77-.06c5.22,1.95,59.1,181.13,62.89,187.65,0,0,42.39-110.08,42.5-110.36-13.13-39.87-33.23-67.97-38.78-75.29-.61-.8.02-1.89,1.03-1.89l85.9-.17c5.59.05,51.28,161.94,57.36,189.25,6.77-8.26,61.67-171.54,41.27-188.11-.42-.34-.14-1.05.41-1.05,10.25.03,51.1.13,64.08.16.92,0,1.27,1.1.51,1.62-32.9,22.29-107.61,249.98-123.47,288.49l-15.57-.03-63.75-188.01-78.61,187.5h-15.93s-48.81-153.16-65.02-204.23Z"/>
  <path class="cls-1" d="M996.67,30.5s0,0,0,0c.05-.02,73.17-27.54,80.7-30.45.38-.15.63.02.63.42.26,51.63-2.77,441.15.66,466.29.08.62-.34,1.09-.97,1.08-9.33-.03-70.59-.18-79.76-.21-.66,0-1.1-.53-.97-1.18,12.44-60.47,32.35-340.43-.29-435.96ZM1069.13,314.11c-.03-.54-.26-2.28.02-2.48,22.5-16.32,57.72-46.7,82.57-68.58,34.34-30.24,34.99-37.23,29.16-54.44-.12-.36,0-.68.39-.68,6.14,0,56.05-.02,67.12-.02.6,0,.76.74.24,1.02-44.53,23.94-102.33,78.11-124,98.04,3.78,5.1,121.29,164.25,148.01,180.02.51.3.27,1.05-.32,1.04-15.49-.14-91.25,0-91.65,0,0,0-.19-.32-.19-.33-.2-.27-111.32-153.23-111.35-153.58Z"/>
</svg>